<svg id="Layer_1" data-name="Layer 1" xmlns="http://www.w3.org/2000/svg" viewBox="0 0 80 80"><defs><style>.cls-1{fill:#238f80;}.cls-2{fill:#008272;}.cls-3{fill:#fff;}</style></defs><title>logo_acc</title><circle class="cls-1" cx="39" cy="40" r="35"/><path class="cls-2" d="M14.74,14.79A35,35,0,1,0,64.21,64.26Z"/><path class="cls-3" d="M26.88,49l-2.39-6.42H15.18L12.85,49H10.61l8.26-21.71h2L29.12,49ZM20.26,31.09q-.11-.29-.22-.67a6.5,6.5,0,0,1-.19-.86h-.06a8.58,8.58,0,0,1-.2.86q-.11.38-.22.67l-3.51,9.66H23.8Z"/><path class="cls-3" d="M46.72,48.2A13.34,13.34,0,0,1,41,49.38a10.45,10.45,0,0,1-4.18-.81,9.29,9.29,0,0,1-3.2-2.25,10,10,0,0,1-2-3.42,12.62,12.62,0,0,1-.72-4.33A13.48,13.48,0,0,1,31.61,34a10.91,10.91,0,0,1,2.19-3.69,10.1,10.1,0,0,1,3.44-2.46,11.11,11.11,0,0,1,4.53-.89,13.59,13.59,0,0,1,5,.85v2.15a11,11,0,0,0-5-1.17,9.12,9.12,0,0,0-3.74.73,7.74,7.74,0,0,0-2.75,2,8.93,8.93,0,0,0-1.71,3.06,12.07,12.07,0,0,0-.59,3.85A11.53,11.53,0,0,0,33.48,42,8.51,8.51,0,0,0,35,44.85a7.43,7.43,0,0,0,2.58,2,8.34,8.34,0,0,0,3.59.73,11.19,11.19,0,0,0,5.51-1.32Z"/><path class="cls-3" d="M65.11,48.2a13.34,13.34,0,0,1-5.74,1.18,10.46,10.46,0,0,1-4.18-.81A9.29,9.29,0,0,1,52,46.32a10,10,0,0,1-2-3.42,12.59,12.59,0,0,1-.72-4.33A13.48,13.48,0,0,1,50,34a10.93,10.93,0,0,1,2.19-3.69,10.11,10.11,0,0,1,3.44-2.46,11.11,11.11,0,0,1,4.53-.89,13.59,13.59,0,0,1,5,.85v2.15a11,11,0,0,0-5-1.17,9.12,9.12,0,0,0-3.74.73,7.75,7.75,0,0,0-2.75,2,8.93,8.93,0,0,0-1.71,3.06,12.07,12.07,0,0,0-.59,3.85A11.56,11.56,0,0,0,51.87,42a8.49,8.49,0,0,0,1.57,2.9,7.42,7.42,0,0,0,2.58,2,8.34,8.34,0,0,0,3.59.73,11.19,11.19,0,0,0,5.51-1.32Z"/></svg>