<!-- Generator: Adobe Illustrator 20.1.0, SVG Export Plug-In . SVG Version: 
6.00 Build 0)  --><svg xmlns="http://www.w3.org/2000/svg" id="Layer_1" style="" 
viewBox="0 0 80 80" x="0px" y="0px" version="1.1" xmlns:xml="http://www.w3.org/XML/1998/namespace" 
xml:space="preserve"> 
<style type="text/css">
	.st0{fill:#59B4D9;}
	.st1{fill:#8B6AB1;}
	.st2{fill:#5C2D91;}
	.st3{fill:#FFFFFF;}
	.st4{fill:#107C10;}
	.st5{fill:#004B1C;}
	.st6{fill:#3772A4;}
	.st7{fill:#FFDA4B;}
	.st8{fill:#699F63;}
	.st9{fill-rule:evenodd;clip-rule:evenodd;fill:#333333;}
	.st10{fill-rule:evenodd;clip-rule:evenodd;fill:#699F63;}
	.st11{clip-path:url(#XMLID_5_);}
	.st12{fill:none;}
	.st13{fill:url(#SVGID_1_);}
	.st14{fill:url(#SVGID_2_);}
	.st15{fill:url(#SVGID_3_);}
	.st16{fill:url(#SVGID_4_);}
	.st17{fill:url(#SVGID_5_);}
	.st18{fill:url(#SVGID_6_);}
	.st19{opacity:0.97;fill:#5382A1;}
	.st20{opacity:0.97;fill:#E76F00;}
	.st21{fill-rule:evenodd;clip-rule:evenodd;fill:url(#SVGID_7_);}
	.st22{fill-rule:evenodd;clip-rule:evenodd;fill:url(#SVGID_8_);}
	.st23{fill-rule:evenodd;clip-rule:evenodd;fill:url(#SVGID_9_);}
	.st24{fill-rule:evenodd;clip-rule:evenodd;fill:url(#SVGID_10_);}
	.st25{fill-rule:evenodd;clip-rule:evenodd;fill:url(#SVGID_11_);}
	.st26{fill-rule:evenodd;clip-rule:evenodd;fill:url(#SVGID_12_);}
	.st27{fill-rule:evenodd;clip-rule:evenodd;fill:url(#SVGID_13_);}
	.st28{fill-rule:evenodd;clip-rule:evenodd;fill:url(#SVGID_14_);}
	.st29{fill-rule:evenodd;clip-rule:evenodd;fill:#FFFFFF;}
	.st30{fill-rule:evenodd;clip-rule:evenodd;fill:url(#SVGID_15_);}
	.st31{fill-rule:evenodd;clip-rule:evenodd;fill:url(#SVGID_16_);}
	.st32{fill-rule:evenodd;clip-rule:evenodd;fill:url(#SVGID_17_);}
	.st33{fill-rule:evenodd;clip-rule:evenodd;fill:url(#SVGID_18_);}
	.st34{fill-rule:evenodd;clip-rule:evenodd;fill:#AA3E35;}
	.st35{fill-rule:evenodd;clip-rule:evenodd;fill:url(#SVGID_19_);}
	.st36{fill-rule:evenodd;clip-rule:evenodd;fill:url(#SVGID_20_);}
	.st37{fill-rule:evenodd;clip-rule:evenodd;fill:url(#SVGID_21_);}
	.st38{fill-rule:evenodd;clip-rule:evenodd;fill:url(#SVGID_22_);}
	.st39{fill:#0078D7;}
	.st40{opacity:0.25;}
	.st41{fill:#505050;}
	.st42{fill:#A0A1A2;}
	.st43{fill:#7A7A7A;}
	.st44{fill:#B8D432;}
	.st45{opacity:0.2;fill:#FFFFFF;enable-background:new    ;}
	.st46{fill:#3E3E3E;}
	.st47{fill:#BAD80A;}
	.st48{opacity:0.34;fill:#FFFFFF;enable-background:new    ;}
	.st49{opacity:0.5;fill:#1E1E1E;enable-background:new    ;}
	.st50{fill:#231F20;}
	.st51{fill-rule:evenodd;clip-rule:evenodd;fill:#394D54;}
	.st52{fill:#00AADA;}
	.st53{fill:#24B8EB;}
	.st54{fill:#008BB8;}
	.st55{fill:#039BC6;}
	.st56{display:none;}
	.st57{display:inline;fill:#394D54;}
	.st58{fill-rule:evenodd;clip-rule:evenodd;fill:#00ACD3;}
	.st59{fill-rule:evenodd;clip-rule:evenodd;fill:#20C2EF;}
	.st60{fill-rule:evenodd;clip-rule:evenodd;fill:#D4EDF1;}
	.st61{fill:#BFDBE0;}
	.st62{fill:#D4EDF1;}
</style> 
<circle class="st4" cx="40" cy="40" r="40" /> <path class="st5" d="M 12.3 11.2 C 4.7 18.5 0 28.7 0 40 c 0 22.1 17.9 40 40 40 c 11.3 0 21.5 -4.7 28.8 -12.3 L 12.3 11.2 Z" 
/> <g><path class="st3" d="M 24.319 50.503 h -2.93 l -3.516 -5.889 c -0.322 -0.547 -0.635 -1.014 -0.938 -1.399 s -0.613 -0.701 -0.93 -0.945 s -0.659 -0.422 -1.025 -0.535 s -0.779 -0.168 -1.238 -0.168 h -2.021 v 8.936 H 9.26 V 29.497 h 6.27 c 0.918 0 1.765 0.115 2.542 0.344 s 1.45 0.579 2.021 1.047 s 1.018 1.052 1.34 1.75 s 0.483 1.516 0.483 2.454 c 0 0.732 -0.11 1.404 -0.33 2.014 s -0.532 1.155 -0.938 1.633 s -0.894 0.886 -1.465 1.223 s -1.213 0.598 -1.926 0.784 v 0.059 c 0.352 0.156 0.657 0.334 0.916 0.535 s 0.505 0.437 0.74 0.71 s 0.466 0.583 0.696 0.93 s 0.486 0.75 0.769 1.209 L 24.319 50.503 Z M 11.721 31.723 v 7.617 h 3.34 c 0.615 0 1.184 -0.093 1.707 -0.278 s 0.974 -0.452 1.355 -0.798 s 0.679 -0.771 0.894 -1.274 s 0.322 -1.067 0.322 -1.692 c 0 -1.123 -0.364 -2 -1.091 -2.629 s -1.78 -0.945 -3.157 -0.945 H 11.721 Z" 
/>	 <path class="st3" d="M 38.337 50.503 H 27.205 V 29.497 h 10.664 v 2.227 h -8.203 v 6.987 h 7.588 v 2.212 h -7.588 v 7.354 h 8.672 V 50.503 Z" 
/>	 <path class="st3" d="M 41.399 49.654 v -2.9 c 0.332 0.293 0.73 0.557 1.194 0.791 s 0.952 0.432 1.465 0.593 s 1.028 0.286 1.545 0.374 s 0.996 0.132 1.436 0.132 c 1.514 0 2.644 -0.281 3.391 -0.843 s 1.121 -1.369 1.121 -2.424 c 0 -0.566 -0.125 -1.06 -0.374 -1.479 s -0.593 -0.804 -1.033 -1.15 s -0.959 -0.679 -1.56 -0.996 s -1.248 -0.652 -1.941 -1.003 c -0.732 -0.371 -1.416 -0.747 -2.051 -1.128 s -1.187 -0.801 -1.655 -1.26 s -0.837 -0.979 -1.106 -1.56 s -0.403 -1.262 -0.403 -2.043 c 0 -0.957 0.21 -1.79 0.63 -2.498 s 0.972 -1.292 1.655 -1.75 s 1.462 -0.801 2.336 -1.025 s 1.765 -0.337 2.673 -0.337 c 2.07 0 3.579 0.249 4.526 0.747 v 2.769 c -1.24 -0.859 -2.832 -1.289 -4.775 -1.289 c -0.537 0 -1.074 0.056 -1.611 0.168 s -1.016 0.295 -1.436 0.549 s -0.762 0.581 -1.025 0.981 s -0.396 0.889 -0.396 1.465 c 0 0.537 0.1 1.001 0.3 1.392 s 0.496 0.747 0.886 1.069 s 0.867 0.635 1.428 0.938 s 1.208 0.635 1.941 0.996 c 0.752 0.371 1.465 0.762 2.139 1.172 s 1.265 0.864 1.772 1.362 s 0.911 1.05 1.208 1.656 c 0.298 0.605 0.447 1.299 0.447 2.08 c 0 1.035 -0.203 1.911 -0.608 2.629 s -0.952 1.302 -1.641 1.751 s -1.482 0.773 -2.38 0.974 s -1.846 0.301 -2.842 0.301 c -0.332 0 -0.742 -0.027 -1.23 -0.081 s -0.986 -0.132 -1.494 -0.234 s -0.989 -0.229 -1.443 -0.381 S 41.672 49.839 41.399 49.654 Z" 
/>	 <path class="st3" d="M 70.74 31.723 h -6.064 v 18.78 h -2.461 v -18.78 h -6.05 v -2.227 H 70.74 V 31.723 Z" 
/> </g> </svg>
